# Blender v2.70 (sub 0) OBJ File: ''
# www.blender.org
o VTX_SEG_0x1F0
v 10.000000 58.000000 -6.999980
v 15.000000 66.000000 -6.999978
v 10.000000 58.000000 7.000020
v 15.000000 66.000000 7.000022
v 12.000000 76.000000 -6.999976
v 12.000000 76.000000 7.000024
v 2.000000 79.000000 -6.999974
v 2.000000 79.000000 7.000026
v -7.000000 76.000000 -6.999976
v -7.000000 76.000000 7.000024
v -10.000000 66.000000 -6.999978
v -10.000000 66.000000 7.000022
v -5.000000 58.000000 -6.999980
v -26.000000 43.000000 -6.999986
v -34.000000 48.000000 -6.999984
v -26.000000 43.000000 7.000014
v -34.000000 48.000000 7.000016
v -44.000000 46.000000 -6.999984
v -44.000000 46.000000 7.000016
v -48.000000 36.000000 -6.999988
v -48.000000 36.000000 7.000012
v -44.000000 27.000004 -6.999992
v -44.000000 26.999996 7.000008
v -34.000000 24.000004 -6.999992
v -34.000000 23.999996 7.000008
v -26.000000 29.000004 -6.999990
v -26.000000 28.999996 7.000010
v -48.000000 36.000000 7.000012
v -44.000000 26.999996 7.000008
v -44.000000 46.000000 7.000016
v -34.000000 48.000000 7.000016
v -34.000000 23.999996 7.000008
vn 0.847998 -0.529999 0.000000
vn 0.957826 0.287348 0.000000
vn 0.287348 0.957826 0.000000
vn -0.316228 0.948683 0.000000
vn -0.957826 0.287348 0.000000
vn -0.847998 -0.529999 0.000000
vn 0.529999 0.847998 0.000000
vn -0.196116 0.980581 0.000000
vn -0.928477 0.371391 0.000000
vn -0.913812 -0.406139 0.000000
vn -0.913812 -0.406138 -0.000000
vn -0.287348 -0.957826 -0.000000
vn 0.529999 -0.847998 -0.000000
vn 0.000000 -0.000000 1.000000
s off
f 1//1 2//1 3//1
f 3//1 2//1 4//1
f 2//2 5//2 4//2
f 4//2 5//2 6//2
f 5//3 7//3 6//3
f 6//3 7//3 8//3
f 7//4 9//4 8//4
f 8//4 9//4 10//4
f 9//5 11//5 10//5
f 10//5 11//5 12//5
f 11//6 13//6 12//6
f 14//7 15//7 16//7
f 16//7 15//7 17//7
f 15//8 18//8 17//8
f 17//8 18//8 19//8
f 18//9 20//9 19//9
f 19//9 20//9 21//9
f 20//10 22//10 21//10
f 21//11 22//11 23//11
f 22//12 24//12 23//12
f 23//12 24//12 25//12
f 24//13 26//13 25//13
f 25//13 26//13 27//13
f 28//14 29//14 30//14
f 29//14 31//14 30//14
f 32//14 31//14 29//14
o VTX_SEG_0x7E0
v -44.000000 46.000000 -6.999984
v -44.000000 27.000004 -6.999992
v -48.000000 36.000000 -6.999988
v -34.000000 48.000000 -6.999984
v -34.000000 24.000004 -6.999992
v -26.000000 43.000000 -6.999986
v -26.000000 29.000004 -6.999990
v -10.000000 8.000002 -6.999998
v -5.000000 1.000002 -7.000000
v -26.000000 1.000002 -7.000000
v -7.000000 18.000004 -6.999994
v -26.000000 58.000000 -6.999980
v -5.000000 58.000000 -6.999980
v 3.000000 22.000004 -6.999992
v -10.000000 66.000000 -6.999978
v 10.000000 58.000000 -6.999980
v 15.000000 66.000000 -6.999978
v -7.000000 76.000000 -6.999976
v 12.000000 76.000000 -6.999976
v 2.000000 79.000000 -6.999974
v 10.000000 36.000000 -6.999988
v 13.000000 46.000000 -6.999984
v 23.000000 48.000000 -6.999984
v 31.000000 58.000000 -6.999980
v 31.000000 44.000000 -6.999986
v 13.000000 27.000004 -6.999992
v 12.000000 18.000004 -6.999994
v 23.000000 24.000004 -6.999992
v 15.000000 9.000002 -6.999998
v 31.000000 29.000004 -6.999990
v 31.000000 1.000002 -7.000000
v 10.000000 1.000002 -7.000000
vn 0.000000 0.000000 -1.000000
s off
f 33//15 34//15 35//15
f 33//15 36//15 34//15
f 34//15 36//15 37//15
f 37//15 36//15 38//15
f 38//15 39//15 37//15
f 40//15 41//15 42//15
f 40//15 42//15 39//15
f 39//15 43//15 40//15
f 39//15 44//15 45//15
f 45//15 43//15 39//15
f 45//15 46//15 43//15
f 45//15 47//15 48//15
f 48//15 47//15 49//15
f 49//15 47//15 50//15
f 50//15 51//15 49//15
f 51//15 50//15 52//15
f 48//15 46//15 45//15
f 53//15 46//15 48//15
f 48//15 54//15 53//15
f 48//15 55//15 54//15
f 48//15 56//15 55//15
f 55//15 56//15 57//15
f 53//15 58//15 46//15
f 46//15 58//15 59//15
f 59//15 58//15 60//15
f 60//15 61//15 59//15
f 60//15 62//15 63//15
f 63//15 61//15 60//15
f 61//15 63//15 64//15
o VTX_SEG_0x3F0
v -26.000000 43.000000 7.000014
v -34.000000 48.000000 7.000016
v -34.000000 23.999996 7.000008
v -26.000000 28.999996 7.000010
v -26.000000 0.999998 7.000000
v -5.000000 0.999998 7.000000
v -10.000000 7.999998 7.000002
v -7.000000 17.999996 7.000006
v -5.000000 58.000000 7.000020
v -26.000000 58.000000 7.000020
v 3.000000 21.999996 7.000008
v 10.000000 58.000000 7.000020
v -10.000000 66.000000 7.000022
v 15.000000 66.000000 7.000022
v -7.000000 76.000000 7.000024
v 12.000000 76.000000 7.000024
v 2.000000 79.000000 7.000026
v 10.000000 36.000000 7.000012
v 13.000000 46.000000 7.000016
v 23.000000 48.000000 7.000016
v 31.000000 58.000000 7.000020
v 31.000000 44.000000 7.000014
v 13.000000 26.999996 7.000008
v 12.000000 17.999996 7.000006
v 23.000000 23.999996 7.000008
v 15.000000 8.999998 7.000002
v 31.000000 0.999998 7.000000
v 31.000000 28.999996 7.000010
v 10.000000 0.999998 7.000000
v -26.000000 0.999998 7.000000
v -5.000000 1.000002 -7.000000
v -5.000000 0.999998 7.000000
vn 0.000000 -0.000000 1.000000
vn 0.000000 -1.000000 -0.000000
s off
f 65//16 66//16 67//16
f 68//16 65//16 67//16
f 69//16 70//16 71//16
f 68//16 69//16 71//16
f 71//16 72//16 68//16
f 73//16 74//16 68//16
f 68//16 72//16 73//16
f 72//16 75//16 73//16
f 76//16 77//16 73//16
f 78//16 77//16 76//16
f 79//16 77//16 78//16
f 78//16 80//16 79//16
f 81//16 79//16 80//16
f 73//16 75//16 76//16
f 76//16 75//16 82//16
f 82//16 83//16 76//16
f 83//16 84//16 76//16
f 84//16 85//16 76//16
f 86//16 85//16 84//16
f 75//16 87//16 82//16
f 88//16 87//16 75//16
f 89//16 87//16 88//16
f 88//16 90//16 89//16
f 91//16 92//16 89//16
f 89//16 90//16 91//16
f 93//16 91//16 90//16
f 94//17 95//17 96//17
o VTX_SEG_0x0
v -10.000000 66.000000 7.000022
v -5.000000 58.000000 -6.999980
v -5.000000 58.000000 7.000020
v 23.000000 48.000000 7.000016
v 31.000000 44.000000 -6.999986
v 31.000000 44.000000 7.000014
v 23.000000 48.000000 -6.999984
v 13.000000 46.000000 7.000016
v 13.000000 46.000000 -6.999984
v 10.000000 36.000000 -6.999988
v 10.000000 36.000000 7.000012
v 13.000000 26.999996 7.000008
v 13.000000 27.000004 -6.999992
v 23.000000 23.999996 7.000008
v 23.000000 24.000004 -6.999992
v 31.000000 28.999996 7.000010
v 31.000000 29.000004 -6.999990
v 15.000000 8.999998 7.000002
v 10.000000 1.000002 -7.000000
v 10.000000 0.999998 7.000000
v 15.000000 9.000002 -6.999998
v 12.000000 17.999996 7.000006
v 12.000000 18.000004 -6.999994
v 3.000000 21.999996 7.000008
v 3.000000 22.000004 -6.999992
v -7.000000 17.999996 7.000006
v -7.000000 18.000004 -6.999994
v -10.000000 7.999998 7.000002
v -10.000000 8.000002 -6.999998
v -5.000000 0.999998 7.000000
v -5.000000 1.000002 -7.000000
vn -0.847998 -0.529999 0.000000
vn -0.447214 -0.894427 0.000000
vn -0.447213 -0.894427 0.000000
vn 0.196116 -0.980581 0.000000
vn 0.957826 -0.287348 0.000000
vn 0.948683 0.316228 0.000000
vn 0.287348 0.957826 0.000000
vn -0.529999 0.847998 0.000000
vn -0.847998 0.529999 0.000000
vn -0.948683 -0.316228 -0.000000
vn -0.406138 -0.913812 -0.000000
vn 0.371391 -0.928477 -0.000000
vn 0.813733 0.581238 0.000000
s off
f 97//18 98//18 99//18
f 100//19 101//19 102//19
f 103//20 101//20 100//20
f 104//21 103//21 100//21
f 105//21 103//21 104//21
f 106//22 105//22 107//22
f 107//22 105//22 104//22
f 108//23 106//23 107//23
f 109//23 106//23 108//23
f 110//24 109//24 108//24
f 111//24 109//24 110//24
f 112//25 111//25 110//25
f 113//25 111//25 112//25
f 114//26 115//26 116//26
f 117//26 115//26 114//26
f 118//27 117//27 114//27
f 119//27 117//27 118//27
f 120//28 119//28 118//28
f 121//28 119//28 120//28
f 122//29 121//29 120//29
f 123//29 121//29 122//29
f 124//22 123//22 122//22
f 125//22 123//22 124//22
f 126//30 125//30 124//30
f 127//30 125//30 126//30
o VTX_SEG_0x5F0
v -26.000000 1.000002 -7.000000
v -5.000000 1.000002 -7.000000
v -26.000000 0.999998 7.000000
v -26.000000 28.999996 7.000010
v -26.000000 1.000002 -7.000000
v -26.000000 0.999998 7.000000
v -26.000000 29.000004 -6.999990
v -26.000000 58.000000 7.000020
v -26.000000 43.000000 -6.999986
v -26.000000 43.000000 7.000014
v -26.000000 58.000000 -6.999980
v -5.000000 58.000000 7.000020
v -26.000000 58.000000 -6.999980
v -26.000000 58.000000 7.000020
v -5.000000 58.000000 -6.999980
v 31.000000 58.000000 7.000020
v 10.000000 58.000000 -6.999980
v 10.000000 58.000000 7.000020
v 31.000000 58.000000 -6.999980
v 31.000000 44.000000 7.000014
v 31.000000 58.000000 -6.999980
v 31.000000 58.000000 7.000020
v 31.000000 44.000000 -6.999986
v 31.000000 0.999998 7.000000
v 31.000000 29.000004 -6.999990
v 31.000000 28.999996 7.000010
v 31.000000 1.000002 -7.000000
v 10.000000 0.999998 7.000000
v 31.000000 1.000002 -7.000000
v 31.000000 0.999998 7.000000
v 10.000000 1.000002 -7.000000
vn 0.000000 -1.000000 -0.000000
vn -1.000000 0.000000 0.000000
vn 0.000000 1.000000 0.000000
vn 1.000000 -0.000000 0.000000
s off
f 128//31 129//31 130//31
f 131//32 132//32 133//32
f 134//32 132//32 131//32
f 135//32 136//32 137//32
f 138//32 136//32 135//32
f 139//33 140//33 141//33
f 142//33 140//33 139//33
f 143//33 144//33 145//33
f 146//33 144//33 143//33
f 147//34 148//34 149//34
f 150//34 148//34 147//34
f 151//34 152//34 153//34
f 154//34 152//34 151//34
f 155//31 156//31 157//31
f 158//31 156//31 155//31
