# 3ds Max Wavefront OBJ Exporter v0.97b - (c)2007 guruware
# File Created: 23.07.2014 16:44:18

#
# object Box001
#

v  -47.0428 671.2525 828.8392
v  17.6801 671.2525 828.8391
v  17.6801 671.2525 266.4222
v  -47.0428 671.2525 266.4222
v  -1671.8729 1904.1011 864.2593
v  -1671.8729 -8.9292 864.2595
v  17.6801 -8.9292 864.2595
v  17.6801 1904.1011 864.2593
v  17.6801 1904.1011 -2158.6826
v  17.6801 -8.9291 -2158.6829
v  -1671.8729 -8.9291 -2158.6829
v  -1671.8729 1904.1011 -2158.6826
v  -1617.8263 584.1808 45.1055
v  -1617.6708 504.2650 828.8391
v  -1617.6708 -8.9292 828.8392
v  -1617.6708 -8.9292 45.1055
v  -1617.6708 1904.1011 -2112.2310
v  -1617.6708 -8.9291 -2112.2314
v  17.6801 -8.9291 -2112.2314
v  17.6801 1904.1011 -2112.2310
v  17.6801 -8.9292 266.4222
v  -47.0428 -8.9292 266.4222
v  -27.0746 230.2176 701.7779
v  -27.0746 568.0256 701.7779
v  -27.0747 568.0256 393.4832
v  -27.0747 230.2176 393.4833
v  -1617.6708 1904.1011 45.1056
v  -1617.6708 1904.1011 828.8391
v  -1617.6708 584.1808 -618.0050
v  -1671.8729 -8.9292 -1075.8446
v  -1671.8729 1904.1012 -1075.8445
v  -1671.8729 1904.1011 -1000.6960
v  -2520.2815 1904.1011 -1000.6960
v  -2520.2813 -8.9292 -1000.6960
v  -1671.8729 -8.9292 -1000.6960
v  -2615.2498 -8.9292 -1075.8446
v  -2615.2498 1904.1012 -1075.8445
v  -2520.2815 1904.1011 1431.9742
v  -2615.2498 1904.1011 1431.9742
v  -2615.2498 -8.9292 1431.9740
v  -2520.2813 -8.9292 1431.9740
v  -1671.8729 -8.9292 -616.8217
v  -1617.6708 -8.9292 -618.0051
v  -1671.8729 584.1808 -616.8217
v  -1671.8729 584.1808 47.6890
v  -1671.8729 -8.9292 47.6890
v  -47.0428 230.2176 701.7779
v  -47.0429 230.2176 393.4833
v  -47.0428 568.0256 701.7779
v  -47.0429 568.0256 393.4832
v  -47.0428 -8.9292 828.8392
v  -782.2473 666.3173 -999.5030
v  -782.2473 -8.9292 -999.5031
v  -12.4654 -8.9292 -999.1776
v  -12.4654 666.3173 -999.1776
v  17.6801 -8.9292 -999.1867
v  17.6801 666.3173 -999.1867
v  -12.4654 -8.9292 -1072.8344
v  -12.4654 666.3173 -1072.8344
v  17.6801 666.3173 -1072.8815
v  17.6801 -8.9292 -1072.8815
v  -208.8877 251.6879 -1072.8751
v  -208.8877 514.2584 -1072.8751
v  -208.9374 251.6880 -1052.9070
v  -208.9374 514.2584 -1052.9070
v  -675.7178 514.2584 -1074.0385
v  -675.7676 514.2584 -1054.0703
v  -675.7178 251.6879 -1074.0385
v  -675.7676 251.6880 -1054.0703
v  -872.1401 -8.9292 -1074.0795
v  -872.1401 666.3173 -1074.0793
v  -790.4355 -8.9292 -366.5404
v  -790.4355 666.3175 -366.5404
v  -881.2416 666.3175 -366.7031
v  -881.2416 -8.9292 -366.7032
v  -880.8354 520.2296 -509.6101
v  -880.8354 269.1017 -509.6101
v  -872.5464 269.1017 -856.9215
v  -872.1401 -8.9292 -999.8285
v  -872.1401 666.3173 -999.8284
v  -872.5464 520.2295 -856.9214
v  -852.5839 269.1017 -856.4451
v  -852.5839 520.2295 -856.4451
v  -860.8729 520.2296 -509.1336
v  -860.8729 269.1017 -509.1336
v  -926.4733 1904.1005 -1933.6956
v  -926.4733 2037.2220 -1933.6956
v  -926.4733 2037.2225 582.6361
v  -926.4733 1904.1011 582.6361
v  -490.5361 2037.2225 582.6361
v  -490.5361 1904.1011 582.6361
v  -490.5361 1904.1011 -1933.6956
v  -490.5361 2037.2225 -1933.6956
v  -219.0910 2037.2225 582.6361
v  17.6801 2037.2225 582.6361
v  17.6801 1904.1011 582.6361
v  -219.0910 1904.1011 582.6361
v  -1671.8729 2038.1971 -1075.8442
v  -1671.8729 2038.1967 -2158.6826
v  17.6801 2038.1967 864.2596
v  -1671.8729 2038.1967 864.2596
v  -1671.8729 2038.1971 -1000.6960
v  -219.0910 2037.2225 -1933.6956
v  17.6801 1904.1011 642.6623
v  17.6801 1904.1011 828.8391
v  17.6801 1904.1011 -1933.6956
v  -219.0910 1904.1011 -1933.6956
v  17.6801 2037.2225 -1933.6956
v  17.6801 2038.1967 -2158.6826
v  82.4030 671.2525 828.8392
v  82.4030 671.2525 266.4222
v  1707.2333 1904.1011 864.2593
v  1707.2333 -8.9292 864.2595
v  1707.2333 1904.1011 -2158.6826
v  1707.2333 -8.9291 -2158.6829
v  1653.1866 584.1808 45.1055
v  1653.0310 -8.9292 45.1055
v  1653.0310 -8.9292 828.8392
v  1653.0310 504.2650 828.8391
v  1653.0309 1904.1011 -2112.2310
v  1653.0309 -8.9291 -2112.2314
v  82.4030 -8.9292 266.4222
v  62.4348 230.2176 701.7779
v  62.4348 230.2176 393.4833
v  62.4348 568.0256 393.4832
v  62.4348 568.0256 701.7779
v  1653.0310 1904.1011 45.1056
v  1653.0310 1904.1011 828.8391
v  1653.0310 584.1808 -618.0050
v  1707.2333 1904.1012 -1075.8445
v  1707.2333 -8.9292 -1075.8446
v  1707.2333 1904.1011 -1000.6960
v  1707.2333 -8.9292 -1000.6960
v  2555.6416 -8.9292 -1000.6960
v  2555.6414 1904.1011 -1000.6960
v  2650.6099 -8.9292 -1075.8446
v  2650.6096 1904.1012 -1075.8445
v  2555.6414 1904.1011 1431.9742
v  2555.6416 -8.9292 1431.9740
v  2650.6099 -8.9292 1431.9740
v  2650.6096 1904.1011 1431.9742
v  1707.2333 -8.9292 -616.8217
v  1707.2333 584.1808 -616.8217
v  1653.0310 -8.9292 -618.0051
v  1707.2333 584.1808 47.6890
v  1707.2333 -8.9292 47.6890
v  82.4030 230.2176 701.7779
v  82.4030 230.2176 393.4833
v  82.4030 568.0256 701.7779
v  82.4030 568.0256 393.4832
v  82.4030 -8.9292 828.8392
v  817.6073 666.3173 -999.5030
v  47.8256 666.3173 -999.1776
v  47.8256 -8.9292 -999.1776
v  817.6074 -8.9292 -999.5031
v  47.8256 -8.9292 -1072.8344
v  47.8256 666.3173 -1072.8344
v  244.2478 514.2584 -1072.8751
v  244.2478 251.6879 -1072.8751
v  244.2976 514.2584 -1052.9070
v  244.2976 251.6880 -1052.9070
v  711.0779 514.2584 -1074.0385
v  711.1277 514.2584 -1054.0703
v  711.0779 251.6879 -1074.0385
v  711.1277 251.6880 -1054.0703
v  907.5003 666.3173 -1074.0793
v  907.5003 -8.9292 -1074.0795
v  825.7957 -8.9292 -366.5404
v  825.7956 666.3175 -366.5404
v  916.6018 -8.9292 -366.7032
v  916.6018 666.3175 -366.7031
v  916.1956 269.1017 -509.6101
v  916.1956 520.2296 -509.6101
v  907.5003 -8.9292 -999.8285
v  907.9066 269.1017 -856.9215
v  907.5003 666.3173 -999.8284
v  907.9066 520.2295 -856.9214
v  887.9440 520.2295 -856.4451
v  887.9440 269.1017 -856.4451
v  896.2328 520.2296 -509.1336
v  896.2328 269.1017 -509.1336
v  961.8336 1904.1005 -1933.6956
v  961.8336 1904.1011 582.6361
v  961.8336 2037.2225 582.6361
v  961.8336 2037.2220 -1933.6956
v  525.8962 1904.1011 582.6361
v  525.8962 2037.2225 582.6361
v  525.8962 1904.1011 -1933.6956
v  525.8962 2037.2225 -1933.6956
v  254.4512 2037.2225 582.6361
v  254.4512 1904.1011 582.6361
v  1707.2333 2038.1967 -2158.6826
v  1707.2333 2038.1971 -1075.8442
v  1707.2333 2038.1967 864.2596
v  1707.2333 2038.1971 -1000.6960
v  254.4512 2037.2225 -1933.6956
v  254.4512 1904.1011 -1933.6956
# 197 vertices

vn 0.0000 1.0000 -0.0000
vn 0.0000 0.0000 1.0000
vn 0.0000 0.0000 -1.0000
vn 1.0000 -0.0000 -0.0002
vn 1.0000 0.0003 -0.0000
vn 0.0000 -0.0000 1.0000
vn -1.0000 0.0000 0.0000
vn 1.0000 0.0000 -0.0000
vn 1.0000 -0.0001 -0.0002
vn 1.0000 -0.0001 0.0002
vn -1.0000 0.0000 -0.0000
vn -1.0000 -0.0000 -0.0000
vn 0.0218 -0.0000 0.9998
vn 0.0218 0.0000 0.9998
vn -0.0000 -1.0000 0.0000
vn 0.0000 -1.0000 -0.0000
vn -0.0477 -0.0000 -0.9989
vn -0.0476 -0.0000 -0.9989
vn -0.0476 0.0000 -0.9989
vn 0.0000 -1.0000 0.0000
vn 0.0000 1.0000 0.0000
vn -0.0004 -0.0000 1.0000
vn -0.0004 0.0000 1.0000
vn 0.0003 0.0000 1.0000
vn -0.0016 0.0000 -1.0000
vn 0.0002 0.0000 -1.0000
vn -1.0000 0.0000 -0.0025
vn 1.0000 0.0000 0.0025
vn 0.0025 0.0017 -1.0000
vn 0.0014 -0.0009 -1.0000
vn 0.0014 -0.0016 -1.0000
vn 0.0025 0.0029 -1.0000
vn 0.0025 0.0000 -1.0000
vn 0.9999 0.0000 0.0129
vn 0.9999 -0.0000 0.0129
vn -0.0018 -0.0000 1.0000
vn -1.0000 0.0000 -0.0028
vn -0.9997 0.0108 -0.0239
vn -0.9999 -0.0059 -0.0144
vn -0.9995 0.0206 -0.0239
vn -0.9998 -0.0113 -0.0144
vn -0.0239 -0.0000 0.9997
vn -0.0239 0.0000 0.9997
vn -0.9997 0.0000 -0.0239
vn -0.9997 -0.0000 -0.0239
vn 0.0239 -0.0000 -0.9997
vn 0.0239 0.0000 -0.9997
vn -0.0000 1.0000 -0.0000
vn 0.0013 1.0000 -0.0000
vn 0.0013 1.0000 0.0000
vn 0.0000 -0.0000 -1.0000
vn -1.0000 -0.0000 0.0000
vn -0.0000 -1.0000 -0.0000
vn 0.0000 0.0000 -0.0000
vn 0.0000 1.0000 0.0043
vn -0.0000 1.0000 0.0043
vn -0.0000 0.0000 -1.0000
vn 0.0000 1.0000 -0.0035
vn -0.0000 1.0000 -0.0035
vn 1.0000 0.0000 0.0000
vn -1.0000 0.0003 -0.0000
vn -1.0000 -0.0000 -0.0002
vn -1.0000 -0.0001 -0.0002
vn -1.0000 -0.0001 0.0002
vn -0.0218 -0.0000 0.9998
vn -0.0218 0.0000 0.9998
vn 0.0477 -0.0000 -0.9989
vn 0.0476 0.0000 -0.9989
vn 0.0476 -0.0000 -0.9989
vn -0.0000 1.0000 0.0000
vn 1.0000 -0.0000 -0.0000
vn 0.0004 0.0000 1.0000
vn 0.0004 -0.0000 1.0000
vn -0.0003 0.0000 1.0000
vn 0.0016 0.0000 -1.0000
vn -0.0002 0.0000 -1.0000
vn 1.0000 0.0000 -0.0025
vn -1.0000 0.0000 0.0025
vn -0.0014 -0.0009 -1.0000
vn -0.0025 0.0017 -1.0000
vn -0.0025 0.0029 -1.0000
vn -0.0014 -0.0016 -1.0000
vn -0.0025 0.0000 -1.0000
vn -0.9999 -0.0000 0.0129
vn 0.0018 -0.0000 1.0000
vn 1.0000 0.0000 -0.0028
vn 0.9999 -0.0059 -0.0144
vn 0.9997 0.0108 -0.0239
vn 0.9998 -0.0113 -0.0144
vn 0.9995 0.0206 -0.0239
vn 0.0239 0.0000 0.9997
vn 0.0239 -0.0000 0.9997
vn 0.9997 -0.0000 -0.0239
vn 0.9997 0.0000 -0.0239
vn -0.0239 0.0000 -0.9997
vn -0.0239 -0.0000 -0.9997
vn -0.0013 1.0000 -0.0000
vn -0.0013 1.0000 0.0000
vn -0.0000 -0.0000 -1.0000
vn 1.0000 -0.0000 0.0000
# 100 vertex normals

g Box001
s 4
f 1//1 2//1 3//1 
f 3//1 4//1 1//1 
s off
f 5//2 6//2 7//2 
f 7//2 8//2 5//2 
f 9//3 10//3 11//3 
f 11//3 12//3 9//3 
f 13//4 14//4 15//4 
f 15//5 16//5 13//5 
f 17//6 18//6 19//6 
f 19//6 20//6 17//6 
f 4//3 3//3 21//3 
f 21//3 22//3 4//3 
f 23//7 24//7 25//7 
f 25//7 26//7 23//7 
f 27//8 28//8 14//8 
f 14//9 13//9 27//9 
f 29//8 17//8 27//8 
f 27//10 13//10 29//10 
f 12//11 11//11 30//11 
f 30//11 31//11 12//11 
f 32//2 33//2 34//2 
f 34//2 35//2 32//2 
f 36//3 37//3 31//3 
f 31//3 30//3 36//3 
f 38//6 39//6 40//6 
f 40//6 41//6 38//6 
f 33//8 38//8 41//8 
f 41//8 34//8 33//8 
f 40//12 39//12 37//12 
f 37//12 36//12 40//12 
s 1
f 42//13 43//13 29//13 
f 29//13 44//14 42//13 
s 2
f 44//15 29//15 13//15 
f 13//15 45//16 44//15 
s 1
f 45//17 13//17 16//18 
f 16//18 46//19 45//17 
s off
f 47//1 23//1 26//1 
f 26//1 48//1 47//1 
f 47//3 49//3 24//3 
f 24//3 23//3 47//3 
f 49//20 50//20 25//20 
f 25//20 24//20 49//20 
f 48//2 26//2 25//2 
f 25//2 50//2 48//2 
f 44//11 32//11 35//11 
f 35//11 42//11 44//11 
f 33//21 37//21 39//21 
f 39//1 38//1 33//1 
f 1//11 49//11 47//11 
f 51//11 1//11 47//11 
f 51//7 47//7 48//7 
f 22//12 51//12 48//12 
f 52//22 53//22 54//22 
f 54//23 55//23 52//23 
f 54//24 56//24 57//24 
f 57//24 55//24 54//24 
f 58//25 59//25 60//25 
f 60//25 61//25 58//25 
f 59//26 58//26 62//26 
f 62//26 63//26 59//26 
f 63//27 62//27 64//27 
f 64//27 65//27 63//27 
f 66//16 63//16 65//16 
f 65//16 67//16 66//16 
f 68//28 66//28 67//28 
f 67//28 69//28 68//28 
f 68//26 70//26 71//26 
f 71//26 66//26 68//26 
f 68//29 62//29 58//29 
f 58//30 70//30 68//30 
f 71//31 59//31 63//31 
f 63//32 66//32 71//32 
f 64//33 69//33 67//33 
f 67//33 65//33 64//33 
f 68//1 69//1 64//1 
f 64//1 62//1 68//1 
f 72//34 53//34 52//34 
f 52//35 73//35 72//35 
f 72//36 73//36 74//36 
f 74//36 75//36 72//36 
f 74//37 76//37 77//37 
f 77//37 75//37 74//37 
f 77//38 78//38 79//38 
f 79//39 75//39 77//39 
f 80//37 79//37 78//37 
f 78//37 81//37 80//37 
f 81//40 76//40 74//40 
f 74//41 80//41 81//41 
f 81//42 78//42 82//42 
f 82//43 83//43 81//43 
f 76//15 81//15 83//15 
f 83//15 84//15 76//15 
f 83//44 82//44 85//44 
f 85//45 84//45 83//45 
f 82//1 78//1 77//1 
f 77//1 85//1 82//1 
f 84//46 85//46 77//46 
f 77//47 76//47 84//47 
f 79//11 80//11 71//11 
f 71//11 70//11 79//11 
f 86//8 87//8 88//8 
f 88//8 89//8 86//8 
f 89//3 88//3 90//3 
f 90//3 91//3 89//3 
f 92//2 93//2 87//2 
f 87//2 86//2 92//2 
f 94//3 95//3 96//3 
f 96//3 97//3 94//3 
f 12//11 31//11 98//11 
f 98//11 99//11 12//11 
f 8//6 100//6 101//6 
f 101//6 5//6 8//6 
f 32//11 5//11 101//11 
f 101//11 102//11 32//11 
f 31//11 32//11 102//11 
f 102//11 98//11 31//11 
s 1
f 103//48 93//1 90//48 
f 90//48 94//48 103//48 
f 102//49 101//50 88//50 
f 88//50 87//49 102//49 
s off
f 98//49 102//49 87//49 
f 87//49 99//49 98//49 
f 29//8 43//8 18//8 
f 18//8 17//8 29//8 
f 32//11 44//11 45//11 
f 45//11 5//11 32//11 
f 5//7 45//7 46//7 
f 46//11 6//11 5//11 
f 51//51 15//51 14//51 
f 1//51 51//51 14//51 
f 1//51 14//51 28//51 
f 31//21 37//21 33//21 
f 33//21 32//21 31//21 
f 50//52 49//52 1//52 
f 1//11 4//11 50//11 
f 22//12 48//12 50//12 
f 50//11 4//11 22//11 
f 86//20 89//20 28//20 
f 86//53 28//53 27//53 
f 86//53 27//53 17//53 
f 91//16 104//16 105//16 
f 91//16 105//16 28//16 
f 89//16 91//16 28//16 
f 92//16 86//16 17//16 
f 17//16 20//16 106//16 
f 17//16 106//16 107//16 
f 92//16 17//16 107//16 
f 91//16 92//16 107//16 
f 91//16 107//16 97//16 
f 104//16 91//16 97//16 
f 97//16 96//16 104//16 
s 4
f 57//1 60//1 59//1 
f 59//1 55//1 57//1 
f 71//1 80//1 52//1 
f 59//1 71//1 52//1 
f 59//1 52//1 55//1 
f 73//1 52//1 80//1 
f 80//1 74//1 73//1 
s off
f 93//11 92//11 91//11 
f 91//11 90//11 93//11 
f 93//54 103//54 108//54 
f 93//55 108//55 109//55 
f 93//55 109//55 99//55 
f 87//56 93//56 99//56 
f 1//51 28//51 105//51 
f 105//57 2//57 1//57 
f 9//3 12//3 99//3 
f 99//3 109//3 9//3 
f 90//58 88//58 101//58 
f 94//59 90//59 101//59 
f 95//58 94//58 101//58 
f 95//58 101//58 100//58 
s 2
f 103//2 107//2 106//2 
f 106//2 108//2 103//2 
s off
f 97//60 107//60 103//60 
f 103//60 94//60 97//60 
s 4
f 110//1 111//1 3//1 
f 3//1 2//1 110//1 
s off
f 112//2 8//2 7//2 
f 7//2 113//2 112//2 
f 9//3 114//3 115//3 
f 115//3 10//3 9//3 
f 116//61 117//61 118//61 
f 118//62 119//62 116//62 
f 120//6 20//6 19//6 
f 19//6 121//6 120//6 
f 111//3 122//3 21//3 
f 21//3 3//3 111//3 
f 123//60 124//60 125//60 
f 125//60 126//60 123//60 
f 127//63 116//63 119//63 
f 119//11 128//11 127//11 
f 129//64 116//64 127//64 
f 127//52 120//52 129//52 
f 114//8 130//8 131//8 
f 131//8 115//8 114//8 
f 132//2 133//2 134//2 
f 134//2 135//2 132//2 
f 136//3 131//3 130//3 
f 130//3 137//3 136//3 
f 138//6 139//6 140//6 
f 140//6 141//6 138//6 
f 135//12 134//12 139//12 
f 139//12 138//12 135//12 
f 140//8 136//8 137//8 
f 137//60 141//60 140//60 
s 1
f 142//65 143//66 129//65 
f 129//65 144//65 142//65 
s 2
f 143//20 145//16 116//20 
f 116//20 129//20 143//20 
s 1
f 145//67 146//68 117//69 
f 117//69 116//67 145//67 
s off
f 147//1 148//1 124//1 
f 124//1 123//1 147//1 
f 147//3 123//3 126//3 
f 126//3 149//3 147//3 
f 149//20 126//20 125//20 
f 125//20 150//20 149//20 
f 148//2 150//2 125//2 
f 125//2 124//2 148//2 
f 143//8 142//8 133//8 
f 133//8 132//8 143//8 
f 135//1 138//1 141//1 
f 141//70 137//70 135//70 
f 147//8 149//8 110//8 
f 147//8 110//8 151//8 
f 148//60 147//60 151//60 
f 122//71 148//71 151//71 
f 152//72 153//72 154//72 
f 154//73 155//73 152//73 
f 154//74 153//74 57//74 
f 57//74 56//74 154//74 
f 156//75 61//75 60//75 
f 60//75 157//75 156//75 
f 157//76 158//76 159//76 
f 159//76 156//76 157//76 
f 158//77 160//77 161//77 
f 161//77 159//77 158//77 
f 162//16 163//16 160//16 
f 160//16 158//16 162//16 
f 164//78 165//78 163//78 
f 163//78 162//78 164//78 
f 164//76 162//76 166//76 
f 166//76 167//76 164//76 
f 164//79 167//79 156//79 
f 156//80 159//80 164//80 
f 166//81 162//81 158//81 
f 158//82 157//82 166//82 
f 161//83 160//83 163//83 
f 163//83 165//83 161//83 
f 164//48 159//48 161//48 
f 161//48 165//48 164//48 
f 168//84 169//84 152//84 
f 152//84 155//84 168//84 
f 168//85 170//85 171//85 
f 171//85 169//85 168//85 
f 171//86 170//86 172//86 
f 172//86 173//86 171//86 
f 172//87 170//87 174//87 
f 174//88 175//88 172//88 
f 176//86 177//86 175//86 
f 175//86 174//86 176//86 
f 177//89 176//89 171//89 
f 171//90 173//90 177//90 
f 177//91 178//91 179//91 
f 179//92 175//92 177//92 
f 173//20 180//20 178//20 
f 178//20 177//20 173//20 
f 178//93 180//93 181//93 
f 181//94 179//94 178//94 
f 179//1 181//1 172//1 
f 172//1 175//1 179//1 
f 180//95 173//95 172//95 
f 172//96 181//96 180//96 
f 174//8 167//8 166//8 
f 166//8 176//8 174//8 
f 182//11 183//11 184//11 
f 184//11 185//11 182//11 
f 183//3 186//3 187//3 
f 187//3 184//3 183//3 
f 188//2 182//2 185//2 
f 185//2 189//2 188//2 
f 190//3 191//3 96//3 
f 96//3 95//3 190//3 
f 114//8 192//8 193//8 
f 193//8 130//8 114//8 
f 8//6 112//6 194//6 
f 194//6 100//6 8//6 
f 132//8 195//8 194//8 
f 194//8 112//8 132//8 
f 130//8 193//8 195//8 
f 195//8 132//8 130//8 
s 1
f 196//1 190//1 187//1 
f 187//1 189//1 196//1 
f 195//97 185//97 184//98 
f 184//98 194//98 195//97 
s off
f 193//97 192//97 185//97 
f 185//97 195//97 193//97 
f 129//52 120//52 121//52 
f 121//52 144//52 129//52 
f 132//8 112//8 145//8 
f 145//8 143//8 132//8 
f 112//8 113//8 146//8 
f 146//8 145//8 112//8 
f 110//99 128//99 119//99 
f 119//51 118//51 151//51 
f 110//57 119//57 151//57 
f 130//21 132//21 135//21 
f 135//21 137//21 130//21 
f 150//8 111//8 110//8 
f 110//100 149//100 150//100 
f 122//8 111//8 150//8 
f 150//71 148//71 122//71 
f 182//16 120//16 127//16 
f 182//16 127//16 128//16 
f 182//15 128//15 183//15 
f 105//16 104//16 186//16 
f 128//16 105//16 186//16 
f 183//16 128//16 186//16 
f 186//16 191//16 197//16 
f 106//16 20//16 120//16 
f 197//16 106//16 120//16 
f 120//53 182//53 188//53 
f 197//16 120//16 188//16 
f 186//16 197//16 188//16 
f 104//16 96//16 191//16 
f 191//16 186//16 104//16 
s 4
f 57//1 153//1 157//1 
f 157//1 60//1 57//1 
f 157//1 153//1 152//48 
f 152//48 176//48 166//1 
f 157//1 152//48 166//1 
f 169//48 171//48 176//48 
f 176//48 152//48 169//48 
s off
f 189//8 187//8 186//8 
f 186//8 188//8 189//8 
f 108//54 196//54 189//54 
f 109//55 108//55 189//55 
f 192//55 109//55 189//55 
f 185//55 192//55 189//55 
f 110//3 2//3 105//3 
f 105//51 128//51 110//51 
f 9//3 109//3 192//3 
f 192//3 114//3 9//3 
f 95//58 100//58 194//58 
f 194//58 184//58 187//58 
f 194//58 187//58 190//58 
f 95//58 194//58 190//58 
s 2
f 196//2 108//2 106//2 
f 106//2 197//2 196//2 
s off
f 191//11 190//11 196//11 
f 196//11 197//11 191//11 
# 352 faces

