# 3ds Max Wavefront OBJ Exporter v0.97b - (c)2007 guruware
# File Created: 25.06.2016 02:32:04

#
# object Box001
#

v  -35.0000 15.0000 -50.0000
v  -35.0000 85.0000 -50.0000
v  35.0000 85.0000 -50.0000
v  35.0000 15.0000 -50.0000
v  -35.0000 15.0000 50.0000
v  35.0000 15.0000 50.0000
v  35.0000 85.0000 50.0000
v  -35.0000 85.0000 50.0000
v  -35.0000 0.0000 -35.0000
v  35.0000 0.0000 -35.0000
v  35.0000 -0.0000 35.0000
v  -35.0000 -0.0000 35.0000
v  50.0000 15.0000 -35.0000
v  50.0000 85.0000 -35.0000
v  50.0000 85.0000 35.0000
v  50.0000 15.0000 35.0000
v  35.0000 100.0000 -35.0000
v  -35.0000 100.0000 -35.0000
v  -35.0000 100.0000 35.0000
v  35.0000 100.0000 35.0000
v  -50.0000 85.0000 -35.0000
v  -50.0000 15.0000 -35.0000
v  -50.0000 15.0000 35.0000
v  -50.0000 85.0000 35.0000
# 24 vertices

vn 0.0000 0.0000 -1.0000
vn 0.0000 -0.0000 1.0000
vn 0.0000 -1.0000 -0.0000
vn 1.0000 0.0000 -0.0000
vn 0.0000 1.0000 0.0000
vn -1.0000 0.0000 -0.0000
vn -0.5774 -0.5774 -0.5774
vn 0.5774 -0.5774 -0.5774
vn -0.5774 0.5774 -0.5774
vn 0.5774 0.5774 -0.5774
vn -0.5774 -0.5774 0.5774
vn 0.5774 -0.5774 0.5774
vn -0.5774 0.5774 0.5774
vn 0.5774 0.5774 0.5774
vn -0.7071 0.0000 -0.7071
vn 0.0000 0.7071 -0.7071
vn 0.7071 0.0000 -0.7071
vn 0.0000 -0.7071 -0.7071
vn 0.0000 -0.7071 0.7071
vn 0.7071 -0.0000 0.7071
vn 0.0000 0.7071 0.7071
vn -0.7071 -0.0000 0.7071
vn 0.7071 -0.7071 -0.0000
vn -0.7071 -0.7071 -0.0000
vn 0.7071 0.7071 0.0000
vn -0.7071 0.7071 0.0000
# 26 vertex normals

vt 0.5673 0.4150 0.0000
vt 0.7230 0.5708 0.0000
vt 0.5672 0.7264 0.0000
vt 0.4115 0.5706 0.0000
vt 0.3173 0.1648 0.0000
vt 0.1615 0.3204 0.0000
vt 0.0058 0.1646 0.0000
vt 0.1616 0.0090 0.0000
vt 0.5201 0.3678 0.0000
vt 0.3643 0.5234 0.0000
vt 0.2087 0.3676 0.0000
vt 0.3644 0.2120 0.0000
vt 0.3643 0.6178 0.0000
vt 0.5199 0.7736 0.0000
vt 0.3642 0.9293 0.0000
vt 0.2085 0.7735 0.0000
vt 0.6143 0.7736 0.0000
vt 0.7701 0.6180 0.0000
vt 0.9258 0.7738 0.0000
vt 0.7700 0.9294 0.0000
vt 0.7702 0.5236 0.0000
vt 0.6145 0.3678 0.0000
vt 0.7703 0.2121 0.0000
vt 0.9260 0.3679 0.0000
vt 0.5673 0.3206 0.0000
vt 0.5846 0.3851 0.0000
vt 0.3816 0.5879 0.0000
vt 0.3171 0.5706 0.0000
vt 0.8173 0.5708 0.0000
vt 0.7529 0.5535 0.0000
vt 0.5499 0.7563 0.0000
vt 0.5671 0.8208 0.0000
vt 0.3472 0.1475 0.0000
vt 0.4117 0.1648 0.0000
vt 0.1614 0.4148 0.0000
vt 0.1442 0.3503 0.0000
vt 0.9730 0.7266 0.0000
vt 0.9903 0.7911 0.0000
vt 0.7872 0.9939 0.0000
vt 0.7228 0.9766 0.0000
vt 0.1613 0.8207 0.0000
vt 0.3169 0.9764 0.0000
vt 0.8172 0.9767 0.0000
vt 0.9730 0.8210 0.0000
vt 0.9732 0.3208 0.0000
vt 0.8175 0.1650 0.0000
# 46 texture coords

g Box001
f 1/1/1 2/2/1 3/3/1 
f 3/3/1 4/4/1 1/1/1 
f 5/5/2 6/6/2 7/7/2 
f 7/7/2 8/8/2 5/5/2 
f 9/9/3 10/10/3 11/11/3 
f 11/11/3 12/12/3 9/9/3 
f 13/13/4 14/14/4 15/15/4 
f 15/15/4 16/16/4 13/13/4 
f 17/17/5 18/18/5 19/19/5 
f 19/19/5 20/20/5 17/17/5 
f 21/21/6 22/22/6 23/23/6 
f 23/23/6 24/24/6 21/21/6 
f 9/9/7 22/25/7 1/26/7 
f 4/27/8 13/28/8 10/10/8 
f 21/29/9 18/18/9 2/30/9 
f 3/31/10 17/17/10 14/32/10 
f 12/12/11 5/33/11 23/34/11 
f 16/35/12 6/36/12 11/11/12 
f 24/37/13 8/38/13 19/19/13 
f 20/20/14 7/39/14 15/40/14 
f 1/1/15 22/22/15 21/21/15 
f 21/21/15 2/2/15 1/1/15 
f 2/2/16 18/18/16 17/17/16 
f 17/17/16 3/3/16 2/2/16 
f 3/3/17 14/14/17 13/13/17 
f 13/13/17 4/4/17 3/3/17 
f 4/4/18 10/10/18 9/9/18 
f 9/9/18 1/1/18 4/4/18 
f 5/5/19 12/12/19 11/11/19 
f 11/11/19 6/6/19 5/5/19 
f 6/41/20 16/16/20 15/15/20 
f 15/15/20 7/42/20 6/41/20 
f 7/43/21 20/20/21 19/19/21 
f 19/19/21 8/44/21 7/43/21 
f 8/45/22 24/24/22 23/23/22 
f 23/23/22 5/46/22 8/45/22 
f 10/10/23 13/28/23 16/35/23 
f 16/35/23 11/11/23 10/10/23 
f 12/12/24 23/34/24 22/25/24 
f 22/25/24 9/9/24 12/12/24 
f 14/32/25 17/17/25 20/20/25 
f 20/20/25 15/40/25 14/32/25 
f 18/18/26 21/29/26 24/37/26 
f 24/37/26 19/19/26 18/18/26 
# 44 faces

